<svg width="220" height="39" viewBox="0 0 220 39" fill="none" xmlns="http://www.w3.org/2000/svg">
<path d="M94.4545 7.18182L99.2592 15.1719H99.4297L104.256 7.18182H108.762L102.04 18.0909L108.869 29H104.288L99.4297 21.0632H99.2592L94.4013 29H89.8416L96.7344 18.0909L89.9268 7.18182H94.4545ZM123.722 13.1797C123.623 12.2493 123.204 11.5249 122.465 11.0064C121.733 10.4879 120.782 10.2287 119.61 10.2287C118.786 10.2287 118.079 10.353 117.49 10.6016C116.9 10.8501 116.449 11.1875 116.137 11.6136C115.824 12.0398 115.665 12.5263 115.657 13.0732C115.657 13.5277 115.76 13.9219 115.966 14.2557C116.18 14.5895 116.467 14.8736 116.829 15.108C117.192 15.3352 117.593 15.527 118.033 15.6832C118.474 15.8395 118.917 15.9709 119.365 16.0774L121.41 16.5888C122.234 16.7805 123.026 17.0398 123.786 17.3665C124.553 17.6932 125.238 18.1051 125.842 18.6023C126.453 19.0994 126.936 19.6996 127.291 20.4027C127.646 21.1058 127.824 21.9297 127.824 22.8743C127.824 24.1527 127.497 25.2784 126.844 26.2514C126.19 27.2173 125.246 27.9737 124.01 28.5206C122.781 29.0604 121.293 29.3303 119.546 29.3303C117.849 29.3303 116.375 29.0675 115.125 28.5419C113.882 28.0163 112.909 27.2493 112.206 26.2408C111.51 25.2322 111.133 24.0036 111.077 22.5547H114.965C115.022 23.3146 115.256 23.9467 115.668 24.451C116.08 24.9553 116.616 25.3317 117.277 25.5803C117.944 25.8288 118.69 25.9531 119.514 25.9531C120.373 25.9531 121.126 25.8253 121.773 25.5696C122.426 25.3068 122.937 24.9446 123.307 24.483C123.676 24.0142 123.864 23.4673 123.871 22.8423C123.864 22.2741 123.697 21.8054 123.371 21.4361C123.044 21.0597 122.586 20.7472 121.996 20.4986C121.414 20.2429 120.732 20.0156 119.951 19.8168L117.469 19.1776C115.672 18.7159 114.251 18.0163 113.207 17.0788C112.17 16.1342 111.652 14.8807 111.652 13.3182C111.652 12.0327 112 10.907 112.696 9.94105C113.399 8.97514 114.354 8.22585 115.562 7.69318C116.769 7.15341 118.136 6.88352 119.663 6.88352C121.211 6.88352 122.568 7.15341 123.733 7.69318C124.905 8.22585 125.824 8.96804 126.492 9.91974C127.16 10.8643 127.504 11.951 127.525 13.1797H123.722ZM131.347 29V7.18182H135.3V16.4183H145.41V7.18182H149.373V29H145.41V19.7315H135.3V29H131.347ZM173.167 18.0909C173.167 20.4418 172.727 22.4553 171.846 24.1314C170.973 25.8004 169.779 27.0788 168.267 27.9666C166.761 28.8544 165.053 29.2983 163.142 29.2983C161.232 29.2983 159.52 28.8544 158.007 27.9666C156.502 27.0717 155.309 25.7898 154.428 24.1207C153.554 22.4446 153.118 20.4347 153.118 18.0909C153.118 15.7401 153.554 13.7301 154.428 12.0611C155.309 10.3849 156.502 9.10298 158.007 8.2152C159.52 7.32741 161.232 6.88352 163.142 6.88352C165.053 6.88352 166.761 7.32741 168.267 8.2152C169.779 9.10298 170.973 10.3849 171.846 12.0611C172.727 13.7301 173.167 15.7401 173.167 18.0909ZM169.194 18.0909C169.194 16.4361 168.934 15.0405 168.416 13.9041C167.904 12.7607 167.194 11.8977 166.285 11.3153C165.376 10.7259 164.328 10.4311 163.142 10.4311C161.956 10.4311 160.909 10.7259 160 11.3153C159.091 11.8977 158.377 12.7607 157.858 13.9041C157.347 15.0405 157.091 16.4361 157.091 18.0909C157.091 19.7457 157.347 21.1449 157.858 22.2884C158.377 23.4247 159.091 24.2876 160 24.8771C160.909 25.4595 161.956 25.7507 163.142 25.7507C164.328 25.7507 165.376 25.4595 166.285 24.8771C167.194 24.2876 167.904 23.4247 168.416 22.2884C168.934 21.1449 169.194 19.7457 169.194 18.0909ZM176.904 29V7.18182H185.086C186.762 7.18182 188.168 7.49432 189.305 8.11932C190.448 8.74432 191.311 9.60369 191.893 10.6974C192.483 11.7841 192.778 13.0199 192.778 14.4048C192.778 15.804 192.483 17.0469 191.893 18.1335C191.304 19.2202 190.434 20.076 189.283 20.701C188.133 21.3189 186.716 21.6278 185.032 21.6278H179.61V18.3786H184.5C185.48 18.3786 186.282 18.2081 186.907 17.8672C187.532 17.5263 187.994 17.0575 188.292 16.4609C188.598 15.8643 188.751 15.179 188.751 14.4048C188.751 13.6307 188.598 12.9489 188.292 12.3594C187.994 11.7699 187.529 11.3118 186.897 10.9851C186.272 10.6513 185.466 10.4844 184.479 10.4844H180.856V29H176.904Z" fill="#EBEBEB"/>
<g clip-path="url(#clip0_1_158)">
<path d="M8.59459 5.3147L0 13.0516L4.24958 16.3792L7.3319 14.385V33.0619H16.4968V5.3147H8.59459ZM80.5224 24.4334C76.2393 26.8232 71.6068 27.1493 66.8335 25.8134C64.4209 25.1383 62.5258 23.6724 60.7052 22.1944C57.919 19.9326 55.674 17.2605 53.2799 14.7065C50.7846 12.0444 48.1551 9.5281 44.7573 7.68831C41.9425 6.16428 38.9479 5.20049 35.6059 5.16657C30.3641 5.11329 25.9856 6.81381 22.581 10.2542C21.7014 11.1434 20.98 12.1121 20.4464 13.1597C20.1017 13.8368 19.2765 15.5595 19.1256 16.5064C19.252 16.3038 19.9094 14.884 20.034 14.6805C20.3596 14.0442 20.6859 13.693 21.0725 13.2482C21.7598 12.4585 22.5928 11.7848 23.662 11.2989C28.2424 9.21774 34.5235 9.96587 38.3863 13.0024C41.7827 15.6722 44.6005 18.7971 47.7014 21.6993C50.599 24.4109 53.3364 27.2609 56.559 29.6968C59.6855 32.0602 63.2809 33.4334 67.5465 33.3958C74.9714 33.3309 81.4173 29.0856 83.34 22.8774C83.5575 22.1748 83.8092 21.3019 83.7158 20.3417C83.0146 22.0365 82.0874 23.5601 80.5226 24.4334H80.5224ZM40.1248 23.602C38.3872 24.705 36.603 25.7397 34.2542 25.2522C31.3202 24.6431 29.3702 23.1024 28.7357 20.5548C28.1431 18.1751 28.9749 16.1147 31.187 14.5329C32.1829 13.8207 33.2869 13.4059 34.4833 13.2257C35.0996 13.1328 35.9435 13.2167 36.6067 13.2396C34.4039 11.8321 31.7122 11.2667 29.0498 11.2992C24.5021 11.3547 21.6978 12.9585 20.0087 16.6066C19.3285 18.0759 18.7554 19.6078 18.9603 21.2155C19.609 24.9777 21.6272 28.1206 25.159 30.4152C30.1154 33.6343 35.5673 34.3248 41.3537 32.3223C45.0139 31.0557 47.882 28.3644 50.5433 25.9715L44.4468 19.9844C43.2658 21.1352 41.5658 22.6874 40.1249 23.602H40.1248ZM76.2949 10.7724C76.2949 9.70834 76.5925 8.70493 77.1168 7.81813C73.3894 5.48819 68.6103 4.55756 64.0745 5.44992C59.552 6.33987 55.9972 8.60062 52.7438 11.3202C52.4047 11.6038 52.0172 12.032 52.0172 12.032L58.2281 18.5425L58.8278 18.019C60.3994 16.532 62.0289 15.092 64.0531 14.0453C64.8805 13.6172 65.7387 13.2158 66.7203 13.1889C69.6479 13.1083 71.896 14.1907 73.2822 16.3929C74.6568 18.5771 74.4138 20.7621 72.8017 22.8232C71.9265 23.9424 70.6516 24.6128 69.2368 25.1659C72.4227 25.6219 75.5106 25.4757 78.4798 24.2889C81.9869 22.8872 83.6993 19.7464 83.6181 17.2775C79.5544 17.1781 76.2949 14.3049 76.2949 10.7724Z" fill="#919FA1"/>
<path d="M83.3557 8.04355V9.29083H81.9011V13.6765H80.3725V9.29083H78.885V8.04355H83.3557ZM86.5668 12.4264C86.8142 12.4264 87.007 12.362 87.1441 12.2412C87.2818 12.1204 87.3551 11.9597 87.3551 11.7665C87.3551 11.5654 87.2818 11.5544 87.1351 11.4417C86.9884 11.3289 86.7959 11.2726 86.5666 11.2726H85.6502V12.4264H86.5668ZM86.4384 10.2506V10.2345C86.6308 10.2345 86.7959 10.1862 86.9242 10.0895C87.0527 9.99319 87.1166 9.86428 87.1166 9.71135C87.1166 9.55047 87.0527 9.4217 86.9242 9.32505C86.7959 9.2287 86.6308 9.18038 86.4384 9.18038H85.6502V10.2506H86.4384ZM86.6678 8.04565L86.6951 8.02148C86.9791 8.02148 87.2451 8.0617 87.4834 8.13404C87.7219 8.20668 87.9236 8.31113 88.0883 8.448C88.2533 8.58479 88.3843 8.7491 88.4734 8.93095C88.5656 9.11649 88.6124 9.31646 88.611 9.51835C88.611 9.66318 88.6505 9.86083 88.5954 9.98164C88.545 10.0961 88.4773 10.2043 88.3939 10.3034C88.3167 10.3954 88.224 10.4768 88.1188 10.545C88.0179 10.6093 87.9263 10.6495 87.8441 10.6736V10.6817C87.9905 10.7139 88.0701 10.7094 88.2078 10.7898C88.3463 10.8701 88.4673 10.9709 88.5651 11.0876C88.6693 11.2138 88.7526 11.3519 88.8127 11.498C88.8766 11.6508 88.9135 11.8039 88.9135 11.9648C88.9135 12.2142 88.8674 12.4394 88.776 12.6488C88.6872 12.853 88.5461 13.0373 88.3633 13.1879C88.1799 13.3408 87.951 13.4616 87.6666 13.55C87.3826 13.6386 87.0527 13.6788 86.6676 13.6788H84.1468V8.04565H86.6676H86.6678Z" fill="#3390DA"/>
</g>
<defs>
<clipPath id="clip0_1_158">
<rect width="89" height="28.5146" fill="white" transform="translate(0 5)"/>
</clipPath>
</defs>
</svg>
